<svg xmlns="http://www.w3.org/2000/svg" xmlns:xlink="http://www.w3.org/1999/xlink" version="1.1" x="0px" y="0px" viewBox="0 0 1500 1200" style="enable-background:new 0 0 1500 1200;" xml:space="preserve">
<style type="text/css">
	.st0{opacity:0.5;fill:#FDBD56;}
	.st1{fill:#FFFFFF;stroke:#4D4D4F;stroke-width:11;stroke-miterlimit:10;}
	.st2{fill:none;stroke:#4D4D4F;stroke-width:11;stroke-miterlimit:10;}
	.st3{fill:#4D4D4F;}
	.st4{fill:#7B7C7F;}
	.st5{fill:#F9B9AF;}
	.st6{fill:#E69E4D;}
	.st7{fill:#0C436B;}
	.st8{fill:#0B538C;}
	.st9{fill:#D3D3D3;}
	.st10{fill:#E9948B;}
	.st11{fill:#FDBD56;}
</style>
<g id="Layer_6">
	<path class="st0" d="M657,256c-16.7,14.7-11.7,26-28,46c-25.1,30.8-55.2,26.5-89,44c-44.6,23.1-81.6,76.7-83,127   c-2.3,78.7,82.8,134.5,108,151c39.2,25.7,49.5,18.3,139,58c87,38.6,85.9,49.5,118,58c99.5,26.3,264.9-37.5,284-156   c14.3-88.4-56.4-186.1-133-213c-61.2-21.5-102.5,10.4-148-26c-43.1-34.5-30-82.3-75-102C720.3,230,680,235.6,657,256z"/>
	<path class="st0" d="M577.3,335.7c-11.1,18.2-3,26.1-12,48.7c-14,34.8-43.6,41.5-70,67.9c-34.7,34.9-52.8,93.2-38.6,136.4   c22.3,67.7,119.5,86,148.3,91.4c44.8,8.4,52.2-1.4,148.6,1.7c93.7,3,96.1,12.7,128.8,8.9c101.6-11.8,237.2-122.7,218.4-230   c-14-80.1-110.7-138.9-191-135.5c-64.1,2.7-93.1,43.9-147.1,28.6c-51.2-14.5-53.7-59.7-102.1-61   C628.7,291.9,592.6,310.5,577.3,335.7z"/>
</g>
<g id="window">
	<path class="st1" d="M720.6,282c-1.9,0-5.6-0.1-10.6,0v282.9h222.1V442.7c0.2-2.5,0.5-7.4,0-13.6C926,352.2,812.9,284.3,720.6,282z   "/>
	<line class="st2" x1="878" y1="340" x2="878" y2="569.3"/>
</g>
<g id="chair">
	<path class="st3" d="M802.7,622.9l-0.4-8.8c0,8.3,3.6,45-4.4,45H660.4c-7.9,0-14.4-6.7-14.4-15v-24.2l0.3-1l9.2-18.4l0.1-0.2   c1.4-0.7,3-1,4.8-1H798c8,0,15.6,7,14.4,15l-9.6,18.6V622.9z"/>
	<path class="st4" d="M822,599.1l-10,23.5c0,5.1-3.9,9.4-9.3,11.1c0,0,0,0,0,0v0c-1.6,0.5-3.3,0.8-5,0.8H660.3c-6.9,0-12.6-4-14-9.3   c-0.2-0.8-0.3-1.7-0.3-2.5l0.3-0.8l9.2-21.6l0.1-0.1l0.4-1c2-6.1,6.4-11.8,14.3-11.8h137.3C815.6,587.3,823.2,592.8,822,599.1z"/>
	<path class="st3" d="M684.3,625.5h-27.6c-5.9,0-10.6-4-10.6-9V454.3c0-5,4.8-9,10.6-9h7.5c9.2,0,11.7,6.3,11.7,14.1l25,151.4   c0,0.3,0.1,0.7,0.1,1C700.7,619.4,693.3,625.5,684.3,625.5z"/>
	<path class="st3" d="M667.9,442.5h-12.3c-5.3,0-9.6-1.6-9.6-3.6v-38.6c0-2,4.3-3.6,9.6-3.6h0.8c5.3,0,9.6,1.6,9.6,3.6l9.5,31.9   c1.5,5-2.2,10.2-7.4,10.2C668,442.5,668,442.5,667.9,442.5z"/>
	<path class="st3" d="M649,766.7v-92.1c0-6.9,5.5-12.5,12.3-12.4l137.9-0.2l0.1,101.4c0.1,0.2,0.2,2.6,0.2,2.6L649,766.7z"/>
</g>
<g id="person">
	<g>
		<path class="st5" d="M871.7,520.2c-2.7,0.2-5.3,0.1-6.4,0.3c-0.4,0.1-1.6,0.8-1.9,0.9c-1,0.5-2.5,1.4-3.5,1.2l-4.3-0.7    c-2.1-0.4-3.9,0.5-4.4,3l0,0c-0.5,2.7,1.2,4.3,3.5,4.4l3,0.6c1.8,0.1,3.4,1.1,5,2.1c3.3,1.9,7.6,1.6,11.1,1c2.2-0.4,4-3.3,6.3-7.2    c1.1-2,2.4-5.3,0-4.4c-2,0.8-5.7,6.6-10.9,3.7c-0.3-0.1-0.9-0.6-0.8-1c0.2-1.2,2.5-1,3.8-1.4c1.7-0.5,2.6-1.7,2.6-2.6    C874.8,519.2,873.6,520.1,871.7,520.2z"/>
		<path class="st6" d="M772.4,471c0,0,2.2,53,27.5,57.6c15.2,2.8,47.4,1.9,54.9,1.6c0.9,0,1.8-0.8,2.1-1.9c0.2-0.7,0.4-1.5,0.5-2.2    c0.1-0.8,0.2-1.8,0.3-2.7c0.1-1.5-0.8-2.8-2.1-3.1c-9.5-1.5-39-7.7-45.9-12.1c-7.9-5-18-46.3-26.9-48.7    C774,457.3,767.1,459.8,772.4,471z"/>
	</g>
	<path class="st5" d="M844.8,728.8l9.5,13.3c0.4,0.6,0.7,1.2,1,1.9l1.9,5.7c1.2,3.6,5.5,5,8.6,2.8c0,0,6-3.9,12.1-8   c6.2-4.2,10.1-12.5,8.7-13.6c-3.3-2.6-3.1,2.5-10.5,5c-2.5,0.8-5.1,1.7-7.6,2.3c-6.9,1.7-12.7-9-15.6-15.5c-1-2.4-4-3-6-1.4   l-1.3,1.1C843.7,724.1,843.4,726.9,844.8,728.8z"/>
	<g id="Layer_3">
		<path class="st3" d="M852.1,553.5L852.1,553.5c-2.5-1.6-3.3-5-1.7-7.6l38.4-60c1.6-2.5,5-3.3,7.6-1.7l0,0c2.5,1.6,3.3,5,1.7,7.6    l-38.4,60C858,554.4,854.6,555.1,852.1,553.5z"/>
	</g>
	<g>
		<path class="st5" d="M890.4,708.6l11.5,11.6c0.5,0.5,0.9,1.1,1.3,1.7l2.8,5.3c1.8,3.4,6.3,4.1,9,1.4c0,0,5.3-4.8,10.6-9.8    c5.5-5.1,8-13.9,6.4-14.8c-3.7-2-2.6,3-9.6,6.6c-2.3,1.2-4.7,2.5-7.1,3.5c-6.5,2.8-14-6.8-17.9-12.8c-1.4-2.2-4.5-2.4-6.2-0.4    l-1.1,1.3C888.6,704.1,888.7,706.8,890.4,708.6z"/>
		<path class="st7" d="M740.4,570.3c29.1,0.3,85,2.9,117.2,36.1c18.4,19,42.4,96.9,42.4,96.9c-0.5,3.1-5.1,6.1-7.5,8.3    c0,0-41.2-44.9-44.9-66.7c-4.4-25.9-17.9-20-33-20.5c-28.3-1-65.9-3.1-83.4-8.2C713.7,611.3,725.1,570.2,740.4,570.3z"/>
		<path class="st8" d="M907.9,727.8l22.2-24.1c0,0,8.3-2.2,10.1,1.3c1.8,3.5-26.1,27.1-26.1,27.1S907.6,733.5,907.9,727.8z"/>
	</g>
	<path class="st8" d="M718.8,568.5c28.7,4.9,83.4,16.4,110,54.4c15.2,21.7,26.4,102.5,26.4,102.5c-1,3-6,5.2-8.8,7   c0,0-33.5-50.9-33.6-73c-0.2-26.3-14.5-22.6-29.3-25.5c-27.8-5.5-54.4-9.6-70.9-17.4C696.1,608.6,703.7,565.9,718.8,568.5z"/>
	<path class="st9" d="M795.4,577.5l-17-118.7l-46.5-7.2c-3.5,1.9-8.1,3-9.4,6.4c-16,42.5-21.1,104.7-17.8,118.2   c0.6,1.3,0.8,4.6,3.3,5.1c8.7,1.8,29.5,5.6,53,6c17.5,0.3,27.4-2.9,31.9-5C794.7,581.4,795.7,579.5,795.4,577.5z"/>
	<path class="st5" d="M758.2,401.8c-10.4,0.2-14.2,7.7-14.1,21.4c0,5.1,2.4,10.2,4.3,13.4c1.4,2.4,1.9,5.2,1.1,7.9l-2.2,7.8   c-1.4,7.2,2,11.1,7.1,12.4c2.5,0.7,5.5,0.1,7.6-1.4c2.6-1.7,2.7-5.3,2.2-8.4l-0.6-2.2c-0.8-3,0.8-6.2,3.8-6.9   c8-1.9,9-10.3,10.9-23.3C780.4,409,768.6,401.6,758.2,401.8z"/>
	<path class="st8" d="M757.7,394.2c-7.2,0.1-19.1,4.4-17.4,14.8l1.5,7.3c0.6,2.9,3.1,5.1,6.1,5.3l0,0c0.3,1,1.2,1.7,2.3,1.7   c1.3,0,2.3-1.1,2.3-2.4c-0.1-3.3,2.2-6.2,5.5-7c4-1,8.4-2,12.7-0.1c13.2,5.7,26.9-5.1,5.4-11.4C767.6,400,771,393.5,757.7,394.2z"/>
	<path class="st5" d="M749.9,423.3c0.1,3.2-1.1,5.8-4.1,5.8s-5.1-4.3-5.2-7.5c-0.1-3.2,1.9-4,5-4S749.8,420.1,749.9,423.3z"/>
	<path class="st10" d="M749.6,436.7c0,0,7.6,10.8,17.3,9.5c0,0-2,0.9-2.5,2.5C764.3,448.7,755.1,447.9,749.6,436.7z"/>
	<path class="st8" d="M859,750.6l25.7-20.3c0,0,8.5-0.9,9.8,2.9s-30.1,22.6-30.1,22.6S857.8,756.2,859,750.6z"/>
	<g>
		<path class="st5" d="M866.4,519.9c-3.1,0.7-6.2,1.1-7.4,1.5c-0.5,0.2-1.7,1-2,1.2c-1.1,0.7-2.6,1.8-3.8,1.8l-5.2,0.1    c-2.5,0-4.4,1.2-4.5,3.7l0,0c0,2.7,2.3,4,5,3.7l3.7,0c2.2-0.2,4.3,0.5,6.3,1.2c4.2,1.3,9.3,0.3,13.3-0.9c2.5-0.8,4-3.9,5.8-8.2    c0.9-2.1,1.6-5.7-0.9-4.3c-2.1,1.1-5.3,7.5-12,5.5c-0.3-0.1-1.2-0.4-1.2-0.8c0-1.3,2.8-1.5,4.1-2.1c1.9-0.8,2.7-2.2,2.5-3    C869.9,518.3,868.6,519.4,866.4,519.9z"/>
		<path class="st11" d="M722.2,465.8c0,0,34.2,54.9,62.3,66.9c17,7.2,53.5,3.2,62.7,1.7c1.1-0.2,2.2-0.2,2.8-1.2    c0.4-0.6,0.7-1.4,1-2.1c0.3-0.7,0.6-1.7,0.8-2.6c0.4-1.5-0.3-3.6-1.8-3.6c-11.5-0.4-52.4-6.5-59.5-12.8    c-8.2-7.3-40.2-52.9-50-57.8C730.7,449.3,718.3,453.2,722.2,465.8z"/>
	</g>
</g>
<g id="Layer_4">
	<path class="st3" d="M1016.8,766.7V592.2c0-13.1-5.5-23.7-12.3-23.6l-137.9-0.3l-0.1,192.2c-0.1,0.4-0.2,4.9-0.2,4.9L1016.8,766.7z   "/>
	<path class="st3" d="M968,593h-77c-6.6,0-12-5.4-12-12v-32.2c0-6.6,5.4-12,12-12h77c6.6,0,12,5.4,12,12V581   C980,587.6,974.6,593,968,593z"/>
	<path class="st3" d="M884.7,519c3.6,0.5,14,2.6,23,11.5c9.6,9.4,11.5,20.5,12,24H879V530L884.7,519z"/>
</g>
</svg>