<svg id="af726a98-3e5e-49f2-a874-bdc9ddd73e24" data-name="Layer 1" xmlns="http://www.w3.org/2000/svg" width="865.76" height="682.89" viewBox="0 0 865.76 682.89"><polygon points="812.71 425.8 812.71 268.2 853.06 297.1 853.06 432.95 832.89 439.74 812.71 425.8" fill="#0d0d0d"/><polygon points="12.71 269.17 119.18 246.31 203.19 280.86 203.19 469.08 12.71 469.08 12.71 269.17" fill="#ccc"/><polygon points="119.18 246.31 119.18 469.08 203.19 469.08 203.19 280.86 119.18 246.31" opacity="0.2"/><g opacity="0.1"><rect x="11.71" y="275.99" width="108.48" height="0.7" transform="translate(-51.68 17.73) rotate(-11.04)"/></g><g opacity="0.2"><rect x="43.41" y="281.44" width="0.7" height="187.64"/></g><g opacity="0.2"><rect x="68.82" y="276.45" width="0.7" height="192.63"/></g><g opacity="0.2"><rect x="94.83" y="271.68" width="0.7" height="197.4"/></g><rect x="184.7" y="340.61" width="421.7" height="128.47" fill="#ccc"/><rect x="184.7" y="340.61" width="40.74" height="128.47" opacity="0.1"/><g opacity="0.1"><rect x="225.43" y="366.57" width="380.97" height="0.7" fill="none" stroke="#000" stroke-miterlimit="10"/></g><g opacity="0.1"><rect x="262.3" y="366.92" width="0.7" height="102.16" fill="none" stroke="#000" stroke-miterlimit="10"/></g><g opacity="0.1"><rect x="303.52" y="366.92" width="0.7" height="102.16" fill="none" stroke="#000" stroke-miterlimit="10"/></g><g opacity="0.1"><rect x="345.13" y="366.92" width="0.7" height="102.16" fill="none" stroke="#000" stroke-miterlimit="10"/></g><g opacity="0.1"><rect x="386.75" y="366.92" width="0.7" height="102.16" fill="none" stroke="#000" stroke-miterlimit="10"/></g><g opacity="0.1"><rect x="428.37" y="366.92" width="0.7" height="102.16" fill="none" stroke="#000" stroke-miterlimit="10"/></g><g opacity="0.1"><rect x="469.19" y="366.92" width="0.7" height="102.16" fill="none" stroke="#000" stroke-miterlimit="10"/></g><rect x="496.75" y="415.74" width="90.84" height="53.34" opacity="0.2"/><rect x="522.36" y="431.75" width="44.42" height="37.33" fill="#ccc"/><rect x="231.83" y="349.72" width="14.41" height="7.98" fill="none" stroke="#000" stroke-miterlimit="10" opacity="0.1"/><rect x="253.84" y="349.72" width="14.41" height="7.98" fill="none" stroke="#000" stroke-miterlimit="10" opacity="0.1"/><rect x="275.85" y="349.72" width="14.41" height="7.98" fill="none" stroke="#000" stroke-miterlimit="10" opacity="0.1"/><rect x="297.36" y="349.72" width="14.41" height="7.98" fill="none" stroke="#000" stroke-miterlimit="10" opacity="0.1"/><rect x="318.97" y="349.72" width="14.41" height="7.98" fill="none" stroke="#000" stroke-miterlimit="10" opacity="0.1"/><rect x="340.98" y="349.72" width="14.41" height="7.98" fill="none" stroke="#000" stroke-miterlimit="10" opacity="0.1"/><rect x="362.99" y="349.72" width="14.41" height="7.98" fill="none" stroke="#000" stroke-miterlimit="10" opacity="0.1"/><rect x="383.4" y="349.72" width="14.41" height="7.98" fill="none" stroke="#000" stroke-miterlimit="10" opacity="0.1"/><rect x="405.81" y="349.72" width="14.41" height="7.98" fill="none" stroke="#000" stroke-miterlimit="10" opacity="0.1"/><rect x="427.32" y="349.72" width="14.41" height="7.98" fill="none" stroke="#000" stroke-miterlimit="10" opacity="0.1"/><rect x="449.73" y="349.72" width="14.41" height="7.98" fill="none" stroke="#000" stroke-miterlimit="10" opacity="0.1"/><rect x="470.94" y="349.72" width="14.41" height="7.98" fill="none" stroke="#000" stroke-miterlimit="10" opacity="0.1"/><rect x="493.35" y="349.72" width="14.41" height="7.98" fill="none" stroke="#000" stroke-miterlimit="10" opacity="0.1"/><rect x="515.15" y="349.72" width="14.41" height="7.98" fill="none" stroke="#000" stroke-miterlimit="10" opacity="0.1"/><rect x="537.06" y="349.72" width="14.41" height="7.98" fill="none" stroke="#000" stroke-miterlimit="10" opacity="0.1"/><rect x="557.47" y="349.72" width="14.41" height="7.98" fill="none" stroke="#000" stroke-miterlimit="10" opacity="0.1"/><rect x="580.38" y="349.72" width="14.41" height="7.98" fill="none" stroke="#000" stroke-miterlimit="10" opacity="0.1"/><rect x="225.43" y="301.3" width="147.66" height="39.32" fill="#ccc"/><rect x="225.43" y="301.3" width="44.82" height="39.32" opacity="0.2"/><rect x="283.06" y="311.3" width="79.93" height="14.01" fill="none" stroke="#000" stroke-miterlimit="10" opacity="0.1"/><polygon points="169.86 267.15 169.86 169.64 241.44 169.64 241.44 37.19 347.08 51.19 347.08 301.3 225.43 301.3 225.43 340.61 203.19 340.61 203.19 280.86 169.86 267.15" fill="#ccc"/><g opacity="0.1"><polygon points="277.11 301.3 276.77 41.87 277.47 41.96 277.81 301.3 277.11 301.3"/></g><g opacity="0.1"><polygon points="317.07 301.3 316.73 47.17 317.43 47.26 317.77 301.3 317.07 301.3"/></g><polygon points="182.69 169.64 182.69 70.84 241.44 37.19 241.44 169.64 182.69 169.64" fill="#ccc"/><polygon points="182.69 169.64 182.69 70.84 241.44 37.19 241.44 169.64 182.69 169.64" fill="#fff" opacity="0.1"/><polygon points="140.03 254.88 140.03 186.8 169.86 169.64 169.86 267.15 140.03 254.88" fill="#ccc"/><polygon points="140.03 254.88 140.03 186.8 169.86 169.64 169.86 267.15 140.03 254.88" fill="#fff" opacity="0.1"/><rect x="188.86" y="187.55" width="15.56" height="23.76" opacity="0.1"/><rect x="253.09" y="123.87" width="14.06" height="23.76" opacity="0.1"/><rect x="290.24" y="68.05" width="14.06" height="23.76" opacity="0.1"/><rect x="290.24" y="144.28" width="14.06" height="23.76" opacity="0.1"/><rect x="251.44" y="187.55" width="14.06" height="23.76" opacity="0.1"/><rect x="326.27" y="132.4" width="15.91" height="23.76" opacity="0.1"/><rect x="290.56" y="220.52" width="13.74" height="23.76" opacity="0.1"/><rect x="220.63" y="212.71" width="13.74" height="23.76" opacity="0.1"/><rect x="220.63" y="264.47" width="13.74" height="20.32" opacity="0.1"/><rect x="253.25" y="251.22" width="14.8" height="20.32" opacity="0.1"/><rect x="325.57" y="267.85" width="13.61" height="22.64" opacity="0.1"/><rect x="189.77" y="236.47" width="13.74" height="23.76" opacity="0.1"/><polygon points="422.6 340.61 423.22 93.21 515.49 37.19 688.26 37.19 688.26 469.08 606.4 469.08 606.4 340.61 422.6 340.61" fill="#ccc"/><polygon points="515.15 340.61 515.49 37.19 423.22 93.21 422.6 340.61 515.15 340.61" opacity="0.2"/><rect x="445.37" y="99.01" width="0.7" height="241.6" fill="#ccc"/><rect x="468.69" y="87.61" width="0.7" height="253.01" fill="#ccc"/><rect x="492.5" y="72.92" width="0.7" height="267.69" fill="#ccc"/><line x1="529.2" y1="55.75" x2="675.58" y2="55.75" fill="none" stroke="#3f3d56" stroke-miterlimit="10"/><rect x="531.26" y="70.61" width="16.24" height="39.45" fill="#fff" opacity="0.1"/><g opacity="0.1"><path d="M589.54,110.42H572.6V70.26h16.94Zm-16.24-.7h15.54V71H573.3Z" fill="none" stroke="#000" stroke-miterlimit="10"/></g><rect x="614.07" y="70.61" width="16.24" height="39.45" opacity="0.2"/><g opacity="0.1"><path d="M671.77,110.42H654.83V70.26h16.94Zm-16.24-.7h15.54V71H655.53Z" fill="none" stroke="#000" stroke-miterlimit="10"/></g><g opacity="0.1"><path d="M547.85,176.75H530.91V136.59h16.94ZM531.61,176h15.54V137.29H531.61Z" fill="none" stroke="#000" stroke-miterlimit="10"/></g><rect x="572.95" y="136.94" width="16.24" height="39.45" fill="#fff" opacity="0.3"/><g opacity="0.1"><path d="M630.65,176.75H613.71V136.59h16.94ZM614.42,176H630V137.29H614.42Z" fill="none" stroke="#000" stroke-miterlimit="10"/></g><rect x="655.18" y="136.94" width="16.24" height="39.45" opacity="0.2"/><rect x="531.26" y="202.31" width="16.24" height="39.45" opacity="0.2"/><rect x="531.26" y="267.67" width="16.24" height="39.45" fill="#fff" opacity="0.3"/><g opacity="0.1"><path d="M589.54,307.48H572.6V267.32h16.94Zm-16.24-.7h15.54V268H573.3Z" fill="none" stroke="#000" stroke-miterlimit="10"/></g><rect x="614.77" y="268.2" width="16.24" height="39.45" opacity="0.2"/><g opacity="0.1"><path d="M671.77,307.48H654.83V267.32h16.94Zm-16.24-.7h15.54V268H655.53Z" fill="none" stroke="#000" stroke-miterlimit="10"/></g><rect x="614.77" y="333.82" width="16.24" height="39.45" fill="#fff" opacity="0.3"/><g opacity="0.1"><path d="M631.35,439.26H614.42V399.1h16.93Zm-16.23-.7h15.53V399.8H615.12Z" fill="none" stroke="#000" stroke-miterlimit="10"/></g><rect x="531.26" y="333.82" width="16.24" height="6.79" opacity="0.2"/><g opacity="0.1"><path d="M588.85,341H571.91v-7.33h16.94Zm-16.24-.7h15.54v-5.93H572.61Z" fill="none" stroke="#000" stroke-miterlimit="10"/></g><rect x="655.18" y="400.28" width="16.24" height="39.45" fill="#fff" opacity="0.1"/><g opacity="0.1"><path d="M673,373.78H656V333.63H673Zm-16.24-.7h15.54V334.33H656.73Z" fill="none" stroke="#000" stroke-miterlimit="10"/></g><rect x="572.95" y="203.27" width="16.24" height="39.45" fill="#fff" opacity="0.1"/><g opacity="0.1"><path d="M631.35,242.37H614.42V202.22h16.93Zm-16.23-.7h15.53V202.92H615.12Z" fill="none" stroke="#000" stroke-miterlimit="10"/></g><rect x="655.18" y="202.57" width="16.24" height="39.45" fill="#fff" opacity="0.3"/><polygon points="688.26 231.28 761.12 216.29 812.71 237.01 812.71 469.08 688.26 469.08 688.26 231.28" fill="#ccc"/><polygon points="688.26 231.28 761.12 216.29 812.71 237.01 812.71 469.08 688.26 469.08 688.26 231.28" fill="#fff" opacity="0.1"/><polygon points="761.21 469.08 761.21 216.29 812.71 237.01 812.71 469.08 761.21 469.08" opacity="0.2"/><rect x="773.31" y="242.72" width="0.7" height="226.36" fill="#ccc"/><rect x="788.92" y="248.73" width="0.7" height="220.35" fill="#ccc"/><rect x="804.93" y="256.75" width="0.7" height="212.33" fill="#ccc"/><polygon points="736.05 250.13 736.05 283.29 748.85 279.69 748.85 246.71 736.05 250.13" fill="#fff" opacity="0.3"/><polygon points="700.83 288.62 700.83 319.7 713.64 316.9 713.64 286.09 700.83 288.62" fill="#fff" opacity="0.3"/><polygon points="732.36 346.75 732.36 376.67 744.25 373.97 744.25 344.31 732.36 346.75" fill="#fff" opacity="0.3"/><polygon points="699.89 378.96 699.89 412.14 711.78 409.15 711.78 376.25 699.89 378.96" fill="#fff" opacity="0.3"/><polygon points="732.82 421.25 732.82 446.72 742.85 444.43 742.85 419.18 732.82 421.25" fill="#fff" opacity="0.3"/><polygon points="746.45 114.02 746.45 219.81 761.21 216.29 812.71 237.01 812.71 268.2 853.06 297.1 853.06 116.42 773.66 102.61 746.45 114.02" fill="#ccc"/><g opacity="0.2"><polygon points="853 121.97 773.3 107.58 746.59 118.74 746.32 118.1 773.22 106.85 773.33 106.87 853.12 121.28 853 121.97"/></g><g opacity="0.2"><rect x="773.31" y="102.61" width="0.7" height="118.69"/></g><g opacity="0.2"><rect x="813.01" y="94.27" width="0.7" height="80.41" transform="translate(552.02 916.36) rotate(-80.91)"/></g><g opacity="0.2"><rect x="813.01" y="118.27" width="0.7" height="80.41" transform="translate(528.31 936.57) rotate(-80.91)"/></g><g opacity="0.2"><rect x="813.01" y="141.58" width="0.7" height="80.41" transform="translate(505.3 956.19) rotate(-80.91)"/></g><g opacity="0.2"><rect x="813.01" y="164.43" width="0.7" height="80.5" transform="translate(477.57 973.25) rotate(-80.52)"/></g><g opacity="0.2"><rect x="815.12" y="190.92" width="0.7" height="76.13" transform="matrix(0.16, -0.99, 0.99, 0.16, 461.09, 998.29)"/></g><g opacity="0.2"><rect x="832.86" y="234.65" width="0.7" height="40.24" transform="matrix(0.16, -0.99, 0.99, 0.16, 445.18, 1034.9)"/></g><g opacity="0.2"><rect x="838.88" y="265.26" width="0.7" height="27.94" transform="matrix(0.14, -0.99, 0.99, 0.14, 445.3, 1071.12)"/></g><path d="M853.06,428.55c-11,10.24-14.24,6.57-15.18,3.86a7.25,7.25,0,0,1-.38-2.36c-.18-15.95-5.81-15.91-5.81-15.91-13.69-1-21.54,15.18-24,21.2a22.16,22.16,0,0,0-1.08,3.65c-1.67,7.62-7.56,6.37-7.56,6.37-22.2-4.6-19.2,23.72-19.2,23.72h73.19Z" fill="#fff"/><path d="M796.67,469.08c-5.8-19.89,2.6-15.72,2.6-15.72s9.38,5.2,11.41-2c0,0,4.6-17,14.21-15,0,0,4,.13,3.2,10.37,0,0-1.6,8.64,8,4.44,0,0,11.73-7,17-6v23.92Z" fill="#ccc"/><g opacity="0.1"><polygon points="182.69 90.73 182.69 89.94 241.44 59.22 241.44 60.01 182.69 90.73"/></g><g opacity="0.1"><polygon points="182.69 111.05 182.69 110.26 241.44 79.53 241.44 80.32 182.69 111.05"/></g><g opacity="0.1"><polygon points="182.69 134.54 182.69 133.75 241.44 103.02 241.44 103.81 182.69 134.54"/></g><g opacity="0.1"><polygon points="182.69 158.21 182.69 157.42 241.44 126.69 241.44 127.48 182.69 158.21"/></g><g opacity="0.1"><polygon points="140.03 200.84 140.03 200.06 169.86 185.66 169.86 186.44 140.03 200.84"/></g><g opacity="0.1"><polygon points="140.03 214.22 140.03 213.44 169.86 199.04 169.86 199.81 140.03 214.22"/></g><g opacity="0.1"><polygon points="140.03 228.11 140.03 227.33 169.86 212.92 169.86 213.7 140.03 228.11"/></g><g opacity="0.1"><polygon points="140.03 242.51 140.03 241.74 169.86 227.33 169.86 228.11 140.03 242.51"/></g><g opacity="0.1"><polygon points="142.66 255.97 141.79 255.61 169.86 242.05 169.86 242.83 142.66 255.97"/></g><path d="M102,469.08s-2-16.72,10.6-14.12c0,0,3.41,1.8,5-3.6,0,0,5.8-17.41,14.4-16.21,0,0,4.55-1.63,5,11.05a3,3,0,0,0,4.74,2.43l.1-.07a22.18,22.18,0,0,1,5.53-4.83A7.78,7.78,0,0,1,157.67,446a23.5,23.5,0,0,1,2.84,5.7,5.52,5.52,0,0,0,7,3.47l.13,0s9-6.4,17.09-.4v14.32Z" fill="#fff"/><path d="M184.7,469.08c-6.53-16.49-21.09-6.52-21.09-6.52-6.21,2.81-7.21.4-7.21.4a31.05,31.05,0,0,0-5.44-6.67,7.72,7.72,0,0,0-1.07-.9c-5-3.43-11.51.79-13.37,2.17a10.68,10.68,0,0,1-1.86,1.12c-3.31,1.52-3.47-.72-3.47-.72.8-6.6-1.4-8.2-1.4-8.2-5.45-1.4-7.74,4.58-8.5,7.31a5.67,5.67,0,0,1-2,3,3.54,3.54,0,0,1-4.66.11,2.74,2.74,0,0,0-1.79-.63c-4.14.17-1.29,9.51-1.29,9.51Z" fill="#ccc"/><polygon points="812.59 247.04 760.22 227.67 688.33 243.06 688.19 242.38 760.27 226.95 760.36 226.98 812.84 246.38 812.59 247.04" fill="#ccc"/><path d="M182.29,602.26a39.48,39.48,0,0,1-21-35.09c0-18.61,12.57-34.18,29.46-38.32a44.43,44.43,0,0,0-10.13-1.14c-23.46,0-42.48,17.65-42.48,39.44,0,17.43,12.21,32.22,29.13,37.42h0s15,8,37.31,1.68C204.61,606.25,191.81,606.83,182.29,602.26Z" fill="#3f3d56"/><polygon points="812.24 558.79 791.03 558.79 759.48 511.44 706.04 518.91 706.28 498.37 739.05 488.82 787.37 497.33 812.24 558.79" fill="#0d0d0d"/><polygon points="812.24 558.79 791.03 558.79 759.48 511.44 706.04 518.91 706.28 498.37 739.05 488.82 787.37 497.33 812.24 558.79" opacity="0.4"/><polygon points="406.38 561.52 396.35 561.52 354.32 504.53 304.17 515.64 300.08 489.53 321.58 479.22 389.71 483.84 406.38 561.52" fill="#0d0d0d"/><polygon points="406.38 561.52 396.35 561.52 354.32 504.53 304.17 515.64 300.08 489.53 321.58 479.22 389.71 483.84 406.38 561.52" opacity="0.4"/><path d="M709.6,514s11.46-9.1,19.48-9.27l28,.84s-30.42-1.15-37.13,41.24c0,0-4.45,28.52,16.76,48.07,0,0,7.1,6.08,15.61,7.36,0,0-12.62,2-23.26,1.06a27.43,27.43,0,0,1-12.22-4.15c-7.22-4.57-18.76-14.79-21.32-34.44,0,0,5.82-2.91,7.14-18.76C702.64,545.92,706.88,518.83,709.6,514Z" fill="#3f3d56"/><ellipse cx="757.06" cy="554.07" rx="37.56" ry="48.54" fill="#0d0d0d"/><path d="M596.17,602.22c-25.78-5-31.07-36.41-31.07-36.41h-23A131.82,131.82,0,0,0,550.05,584,37.38,37.38,0,0,0,562,597.7a36.87,36.87,0,0,0,12.41,5.36h0s17.92,5.78,33.42-1.15A35.4,35.4,0,0,1,596.17,602.22Z" fill="#3f3d56"/><path d="M565.1,565.81s4.53,28.93,27.16,35.54a33,33,0,0,0,29.61-6.07c6.69-5.32,14-14.42,16.08-29.47Z" fill="#0d0d0d"/><path d="M565.1,565.81s4.53,28.93,27.16,35.54a33,33,0,0,0,29.61-6.07c6.69-5.32,14-14.42,16.08-29.47Z" opacity="0.2"/><ellipse cx="601.62" cy="567.91" rx="17.06" ry="14.48" fill="#3f3d56"/><path d="M279.47,441.53v-9.45a5.89,5.89,0,0,1,6.5-5.87l10.55,1.09c-2.57,2.44-5.37,5-8.42,7.5S282.25,439.5,279.47,441.53Z" fill="#0d0d0d"/><path d="M238.13,567.17c0,21.76-17.2,39.39-38.39,39.39a36.76,36.76,0,0,1-9.07-1.12c-16.84-4.16-29.34-19.71-29.34-38.27S173.9,533,190.79,528.85a37.18,37.18,0,0,1,9-1.09C220.93,527.76,238.13,545.41,238.13,567.17Z" fill="#0d0d0d"/><ellipse cx="199.94" cy="562.66" rx="21.11" ry="19.72" fill="#3f3d56"/><path d="M395.82,563.92s8.42-30.15-14-54.16c0,0-10.92-14.46-33.37-11.59,0,0-14.66-1.75-20.9-.38,0,0-14.52.74-22.54,15.87l-12.64,50.26s4.19,38.56,38.75,42.65l29.69-1.06S390.17,600.61,395.82,563.92Z" fill="#3f3d56"/><ellipse cx="355.58" cy="551.72" rx="41.78" ry="53.79" fill="#0d0d0d"/><path d="M385.6,552.7c0,21.54-13.36,39-29.82,39a22.92,22.92,0,0,1-7.45-1.24c-.05,0-.07,0-.1,0C335.43,586.07,326,570.83,326,552.7c0-21.55,13.35-39,29.81-39a21.51,21.51,0,0,1,4.49.46s.05,0,.05,0C374.63,517,385.6,533.18,385.6,552.7Z" opacity="0.2"/><path d="M382.68,551.91c0,21.57-13.35,39-29.81,39a22.06,22.06,0,0,1-4.54-.45c-.05,0-.07,0-.1,0C335.43,586.07,326,570.83,326,552.7c0-21.55,13.35-39,29.81-39a21.51,21.51,0,0,1,4.49.46s.05,0,.05,0C373.2,518.46,382.68,533.73,382.68,551.91Z" fill="#3f3d56"/><path d="M343.29,535.45s7.06,6.79,1.56,13.28c0,0-6.91,7.45-12.79,2.91a5.24,5.24,0,0,1-1.88-3.66c-.3-3-.4-8.56,2.25-12.8a5.43,5.43,0,0,1,6-2.22A10.82,10.82,0,0,1,343.29,535.45Z" fill="#0d0d0d"/><path d="M350.28,526.54s-2.9-8,3.07-9c0,0,13.14-2.22,14,5.8,0,0-.47,7-4.38,10.56a5.7,5.7,0,0,1-5.87.87C354.69,533.78,351.57,531.59,350.28,526.54Z" fill="#0d0d0d"/><path d="M369.1,545.33a5.8,5.8,0,0,1-1.71-4.66c.22-3.46,1.29-9.62,6.1-9,0,0,4.6,1,6,8.71,0,0,1.88,7-3.41,7.16A9.57,9.57,0,0,1,369.1,545.33Z" fill="#0d0d0d"/><path d="M369.56,569.37s-5-9.54,4-14.5c0,0,5.67-3.24,6.2,0,0,0,1.9,9-4.25,15.87C375.53,570.74,372.46,574,369.56,569.37Z" fill="#0d0d0d"/><path d="M334.3,573.26a10,10,0,0,1-2.62-6.2c-.09-2.43.65-5.45,4.44-6.73,0,0,9.38-3.58,11.94,2.31,0,0,1.59,5-.32,9.2-2.36,5.13-9.16,5.89-13.08,1.82Z" fill="#0d0d0d"/><path d="M355.58,570.94a15.42,15.42,0,0,0-5.91,10.58,4.69,4.69,0,0,0,.48,2.76c.87,1.59,3,3.61,8.31,3,0,0,8,0,9.7-6.31.58.13-.86-7.41-5.58-10.49A6.06,6.06,0,0,0,355.58,570.94Z" fill="#0d0d0d"/><ellipse cx="358.9" cy="552.4" rx="9.27" ry="12.03" fill="#0d0d0d"/><ellipse cx="359.3" cy="552.23" rx="6.85" ry="9.29" fill="#3f3d56"/><path d="M89.53,519.57l16.52-38.4s2.47-8.26,15.69-9.5l157.73-30.14s12-9.08,19-16.1c0,0,42.12-39.64,57.39-59.87,0,0,5.37-9.09,16.11-8.68,0,0,289.85-4.95,320.41.83,0,0,7.43.41,11.15,6.61l45.91,63.37c1.84,2.54,3.54,5.17,5.21,7.82a16.26,16.26,0,0,0,12.88,7.67l48.37,7.6a15.1,15.1,0,0,1,6.49,2.57,14,14,0,0,1,5.83,10.06s5.37,22.71,5.37,29.73c0,0-.41,8.26,4.54,12.39,0,0,7.85,9.91,2.07,21.47L827.8,551.77s-.83,9.91-17.34,7c0,0-12.8-36.74-18.17-42.94,0,0-12-19.4-25.19-18.17H740a40.36,40.36,0,0,0-19.88,5.09c-5.37,3-10.46,7.63-11.21,14.32a164,164,0,0,0-5.78,32.62s-.82,15.28-11.56,16.1H417.34s-12.06.34-14.59-11.2L392,511.87s-4.09-18.94-26.87-23.29h-32S315,489.09,305,513.66c0,0,5.37,1.54,3.58,5.63l-14.07,42.49a5,5,0,0,1-4.23,2.69H119.59a10.59,10.59,0,0,1-9.22-4.48L89.56,530.64a24.28,24.28,0,0,1-2.47-4.28C85.73,523.27,84.69,519,89.53,519.57Z" fill="#0d0d0d"/><path d="M93,535.45H303.21l5.35-16.16s2.19-4.32-3.58-5.63H92.07l-2.54,5.91s-6-1.45-2.39,6.89Z" opacity="0.2"/><path d="M112.66,480h19.22l-11.11,26.71H95.07l9.11-21.13A9.23,9.23,0,0,1,112.66,480Z" fill="#fff"/><polygon points="131.88 479.97 130.73 482.74 229.54 481.36 230.19 479.97 131.88 479.97" fill="#ccc"/><polygon points="127.5 490.5 225.71 489.52 227.86 484.95 129.26 486.25 127.5 490.5" fill="#ccc"/><polygon points="124.31 498.17 125.86 494.45 224.57 491.96 222.92 495.49 124.31 498.17" fill="#ccc"/><polygon points="122.84 501.71 221.05 499.46 218.98 503.89 120.77 506.68 122.84 501.71" fill="#ccc"/><polygon points="119.61 509.56 217.27 507.64 215.51 511.88 118.67 511.88 119.61 509.56" fill="#ccc"/><path d="M783.92,554.07c0,19.41-12,35.16-26.86,35.16a20.67,20.67,0,0,1-6.71-1.12s-.07,0-.09,0c-11.53-4-20-17.69-20-34,0-19.4,12-35.16,26.85-35.16a19.39,19.39,0,0,1,4.05.41s0,0,0,0C774,521.91,783.92,536.49,783.92,554.07Z" opacity="0.2"/><path d="M781.29,553.36c0,19.43-12,35.16-26.85,35.16a19.77,19.77,0,0,1-4.09-.41s-.07,0-.09,0c-11.53-4-20-17.69-20-34,0-19.4,12-35.16,26.85-35.16a19.39,19.39,0,0,1,4.05.41s0,0,0,0C772.75,523.24,781.29,537,781.29,553.36Z" fill="#3f3d56"/><path d="M745.81,538.54s6.36,6.12,1.41,12c0,0-6.22,6.71-11.52,2.62a4.68,4.68,0,0,1-1.69-3.3c-.28-2.69-.37-7.71,2-11.53a4.91,4.91,0,0,1,5.44-2A9.72,9.72,0,0,1,745.81,538.54Z" fill="#0d0d0d"/><path d="M752.11,530.52s-2.62-7.23,2.76-8.15c0,0,11.84-2,12.61,5.23,0,0-.43,6.34-4,9.5a5.12,5.12,0,0,1-5.29.79A10.1,10.1,0,0,1,752.11,530.52Z" fill="#0d0d0d"/><path d="M769.06,547.44a5.2,5.2,0,0,1-1.54-4.19c.2-3.13,1.16-8.68,5.49-8.12,0,0,4.15.92,5.38,7.84,0,0,1.69,6.3-3.07,6.45A8.64,8.64,0,0,1,769.06,547.44Z" fill="#0d0d0d"/><path d="M769.47,569.1s-4.54-8.6,3.62-13.07c0,0,5.11-2.92,5.59,0,0,0,1.71,8.15-3.83,14.29C774.85,570.32,772.09,573.24,769.47,569.1Z" fill="#0d0d0d"/><path d="M737.71,572.6a9,9,0,0,1-2.35-5.59,5.63,5.63,0,0,1,4-6.06s8.45-3.22,10.76,2.08c0,0,1.43,4.53-.29,8.29-2.13,4.62-8.25,5.3-11.78,1.64Z" fill="#0d0d0d"/><path d="M756.88,570.51a13.84,13.84,0,0,0-5.32,9.53,4.17,4.17,0,0,0,.43,2.48c.78,1.44,2.71,3.25,7.48,2.71,0,0,7.18,0,8.74-5.68.52.12-.77-6.67-5-9.45A5.46,5.46,0,0,0,756.88,570.51Z" fill="#0d0d0d"/><ellipse cx="759.87" cy="553.8" rx="8.35" ry="10.84" fill="#0d0d0d"/><ellipse cx="760.23" cy="553.65" rx="6.17" ry="8.37" fill="#3f3d56"/><g opacity="0.4"><path d="M458.33,565.82l-5.79-97.77a36.14,36.14,0,0,1,11.26-28l.24.26A35.74,35.74,0,0,0,452.89,468l5.79,97.79Z"/></g><path d="M461.3,447.51h11.93a0,0,0,0,1,0,0v7.11a0,0,0,0,1,0,0H461.3a1.49,1.49,0,0,1-1.49-1.49V449A1.49,1.49,0,0,1,461.3,447.51Z" fill="#0d0d0d"/><path d="M461.3,447.51h11.93a0,0,0,0,1,0,0v7.11a0,0,0,0,1,0,0H461.3a1.49,1.49,0,0,1-1.49-1.49V449A1.49,1.49,0,0,1,461.3,447.51Z" opacity="0.2"/><path d="M516.48,365.62s-56.57,74.25-52.35,78.07c0,0,1.88,3,14,2.66l252.11-2.66s8.3-.13,5.73-7.58l-43.41-66.52a8.88,8.88,0,0,0-3.46-2.91,10.63,10.63,0,0,0-4.84-1.06Z" fill="#3f3d56"/><path d="M612,370.08l18.77,56.13h93.85L686.44,371.8a4.06,4.06,0,0,0-3.32-1.72Z" fill="#fff" opacity="0.2"/><path d="M484.49,427l3.22-13.45,33.5-45,74.17,1.53,24.81,70.74-96.25,1.28V430a3,3,0,0,0-3-3Z" fill="#fff" opacity="0.2"/><path d="M636.16,440.82l-5.36-14.61h93.85s10.8,11.62,2.47,14.61Z" fill="#0d0d0d"/><polygon points="495.65 427.02 500.42 396.5 487.71 413.57 484.49 427.02 495.65 427.02" fill="#0d0d0d"/><polygon points="588.25 370.08 612.03 424.98 598.47 424.98 592.28 441.19 620.19 440.82 595.38 370.08 588.25 370.08" fill="#0d0d0d"/><g opacity="0.4"><rect x="625.85" y="444.79" width="0.35" height="68.87"/></g><g opacity="0.4"><polygon points="621.87 566.18 621.53 566.13 625.85 535.17 626.2 535.22 621.87 566.18"/></g><g opacity="0.4"><path d="M703.44,513.74l-.31-.16c.26-.49,6.44-12,13.75-13.49.15,0,17.34-6.13,16.81-16.48,0-.29,1.61-26.9-2.24-40l.34-.1c3.87,13.2,2.27,39.88,2.25,40.14.54,10.59-16.89,16.76-17.06,16.82C709.8,501.91,703.51,513.63,703.44,513.74Z"/></g><rect x="703.29" y="459.62" width="26.92" height="6.31" rx="0.42" opacity="0.4"/><circle cx="725.24" cy="470.58" r="1.54" opacity="0.4"/><rect x="591.49" y="462.8" width="26.92" height="6.31" rx="0.42" opacity="0.4"/><circle cx="613.44" cy="473.75" r="1.54" opacity="0.4"/><path d="M281.09,480s137.06-19.87,219.32-20.35c0,0,197.79-8.51,251.11-5l-2.42-7.1s-255.35.74-307.88,10.06c0,0-119.08,10.5-162.34,20.63A8,8,0,0,1,281.09,480Z" fill="#3f3d56"/><path d="M691.54,565.81s4.67-9.37,5.14-30.61c0,0-.63-41.66,22.07-43.94l38.31-1.89s26.36.35,34,24.6c0,0-10.77-18.2-23.93-16.29H740A39.61,39.61,0,0,0,719.81,503c-4.26,2.52-8.32,6.06-10.21,10.93a212.88,212.88,0,0,0-6.31,33.92S703.29,564.64,691.54,565.81Z" fill="#fff" opacity="0.2"/><path d="M240,480l191.92-28.91s7.08-.93,12.4-9l56.12-76.48s4.94-8.5,23.53-10.51l-152,1.77s-10.54-.79-16.11,8.68c0,0-46.36,54.26-76.38,76L123.1,471.41s-14.3-.4-17.95,11.84c0,0,3.3-3.28,7.51-3.28Z" opacity="0.2"/><path d="M300.08,513.66s3.36-29.18,25.12-29.82h41.52a28,28,0,0,1,16.15,4.84c5.46,3.84,10.48,10.51,8.75,21.86a33.66,33.66,0,0,0-11.78-15.65,34.07,34.07,0,0,0-20.23-6.31H333.13s-18.58.51-28.15,25.08Z" fill="#3f3d56"/><g opacity="0.4"><path d="M694.24,565.22,694,565c6.87-8.2,4.59-29.56,4.57-29.78l.34,0C698.91,535.39,701.2,556.9,694.24,565.22Z"/></g><path d="M791,514l50.76-.31s1.75,6.64-2.24,14.62l-3.92,7.84H802S796,519.3,791,514Z" fill="#3f3d56"/><path d="M828.21,463.41H814.66a2.43,2.43,0,0,0-2.41,2.65l2.28,25.14a2.44,2.44,0,0,0,2.46,2.21l16.59-.27c0-1.13-.12-2.83-.35-4.89s-.56-3.6-1.31-7.35c-1-5.22-.78-4.09-1.38-7S829.17,467.48,828.21,463.41Z" fill="#fff"/><path d="M813.9,484.23h18.63a56,56,0,0,1,1.05,8.91l-16.59.27a2.49,2.49,0,0,1-2.47-2.4Z" fill="#0d0d0d"/><path d="M563.53,394.65,575,433.85l8,2.46h3.8a8.87,8.87,0,0,0,8.72-7.2l3.59-18.59c4.09-15.39-7.63-15.87-7.63-15.87h-27" fill="#0d0d0d"/><path d="M541.65,442.1s1.43-10.43,12-12c0,0,1.61,2.8,7.93,3.35l15.88.39s9.61.35,11.54,7.39Z" fill="#0d0d0d"/><path d="M472.56,427h50a1.34,1.34,0,0,1,1.34,1.34v24.91a1.34,1.34,0,0,1-1.34,1.34H471.22a0,0,0,0,1,0,0V428.36A1.34,1.34,0,0,1,472.56,427Z" fill="#0d0d0d"/><path d="M472.56,427h50a1.34,1.34,0,0,1,1.34,1.34v24.91a1.34,1.34,0,0,1-1.34,1.34H471.22a0,0,0,0,1,0,0V428.36A1.34,1.34,0,0,1,472.56,427Z" opacity="0.2"/><path d="M569.3,433.85H575a12.43,12.43,0,0,0,12.36-11.06l1.58-14.35a12.42,12.42,0,0,0-12.35-13.79H564.54A10.61,10.61,0,0,0,554,404l-2.31,19.34a9,9,0,0,0,8.44,10Z" fill="#3f3d56"/><polygon points="392.45 513.66 709.6 513.97 704.85 535.17 398.1 536.12 392.45 513.66" opacity="0.2"/><polygon points="394.06 520.04 454.14 520.04 454.14 524.89 395.6 524.89 394.06 520.04" fill="#fff" opacity="0.2"/><rect x="456.48" y="520.04" width="169.54" height="4.85" fill="#fff" opacity="0.2"/><polygon points="628.28 520.04 628.28 524.89 698.07 524.89 696.68 535.2 704.85 535.2 709.6 513.97 699.46 513.97 698.74 520.04 628.28 520.04" fill="#fff" opacity="0.2"/><path d="M300.81,435.56l59.62-67a8.73,8.73,0,0,1,6.5-2.92H479.29a3.88,3.88,0,0,1,3.12,6.17l-49,66.63a12.89,12.89,0,0,1-10.62,5.27l-119-2a3.84,3.84,0,0,1-3.06-6.09Z" fill="#0d0d0d"/><path d="M316.54,429.28l49.1-59.71a2.81,2.81,0,0,1,2.17-1H475.3a2.8,2.8,0,0,1,2.26,4.45L433,433.85H318.7A2.79,2.79,0,0,1,316.54,429.28Z" fill="#fff" opacity="0.2"/><path d="M391.62,382V370.41h17.14v-1.86h13.57v1.91l14.08.13V382a2,2,0,0,1-2,2H393.6A2,2,0,0,1,391.62,382Z" fill="#0d0d0d"/><path d="M444,368.55s-16,35.22-19.92,65.3H433l23-31.43s2.55-26.3,7.91-33.87Z" fill="#0d0d0d" opacity="0.2"/><path d="M400,433.85s6.42-12.81,25.93-10.74l1.44-6.35s-26.65-4.54-32.66,17.09Z" fill="#3f3d56"/><path d="M230.19,480l-12.52,26.71H276l4-18.95a6.52,6.52,0,0,0-5.17-7.76H230.19Z" fill="#fff"/><path d="M266.84,480v-2.74h8.27a7.92,7.92,0,0,1,7.76,9.47l-4,20H276L280.13,487s.39-6-5.26-7Z" fill="#0d0d0d"/><path d="M266.84,480v-2.74h8.27a7.92,7.92,0,0,1,7.76,9.47l-4,20H276L280.13,487s.39-6-5.26-7Z" opacity="0.2"/><path d="M524.29,622.3a87.21,87.21,0,0,1-13.06,6.92c-5.6,2.14-9.31,3.45-8.23,6.93s7.15,6.37,14.89,8,21.52-1.85,25.26-2.92,4.26-7.19,1.59-10.64S528.81,620.44,524.29,622.3Z" fill="#d8b131"/><path d="M526.69,642.26c-6.4,0-17-2.4-17-4.78s2.61-4.26-.52-5.07-5.23,3.55-5.75,4.57c1.72,3.08,7.44,5.67,14.52,7.13,7.84,1.6,21.53-1.85,25.27-2.92a4.38,4.38,0,0,0,2.79-3A64.88,64.88,0,0,1,526.69,642.26Z" fill="#0d0d0d"/><path d="M557,451.54l1.59,5.23a8.57,8.57,0,0,0-3.19,6.64,12.81,12.81,0,0,0,4.52,7.44" fill="none" stroke="#263238" stroke-linecap="round" stroke-linejoin="round"/><path d="M540.75,441.17a103.1,103.1,0,0,0-4,13.3v7.19c0,1.33-5.23,29.52-6.4,46.81s-1.86,37.49-3.19,42,.26,6.89.52,13.3.55,38.56.55,38.56-1.33,8.51-1.59,10.63-2.93,2.92-3.74,4.26a46.5,46.5,0,0,0-2.12,6.63,24.18,24.18,0,0,1,10.9,6.4c3.73,4.52,13.82,10.11,15.15,9.83s2.14-4,4.26-9,1.88-7.71,2.92-9.83,2.62-5.59,5.07-21.55,4.52-39.63,5.86-42.82,8.22-15.15,8.22-15.15a268,268,0,0,0,15.44-35.92,216.6,216.6,0,0,0,8.78-35.12A227.58,227.58,0,0,0,599.79,446v-2.61s-9.82,3.71-27.38,1.86S540.75,441.17,540.75,441.17Z" fill="#0d0d0d"/><path d="M540.75,441.17a103.1,103.1,0,0,0-4,13.3v7.19c0,1.33-5.23,29.52-6.4,46.81s-1.86,37.49-3.19,42,.26,6.89.52,13.3.55,38.56.55,38.56-1.33,8.51-1.59,10.63-2.93,2.92-3.74,4.26a46.5,46.5,0,0,0-2.12,6.63,24.18,24.18,0,0,1,10.9,6.4c3.73,4.52,13.82,10.11,15.15,9.83s2.14-4,4.26-9,1.88-7.71,2.92-9.83,2.62-5.59,5.07-21.55,4.52-39.63,5.86-42.82,8.22-15.15,8.22-15.15a268,268,0,0,0,15.44-35.92,216.6,216.6,0,0,0,8.78-35.12A227.58,227.58,0,0,0,599.79,446v-2.61s-9.82,3.71-27.38,1.86S540.75,441.17,540.75,441.17Z" fill="#fff" opacity="0.2"/><path d="M528.65,606.71h0a.36.36,0,0,1-.31-.39c0-.28,3.63-27.71,5.23-38.05a105.68,105.68,0,0,1,5.58-25.06c2.11-6.6,4.27-12.85,6.54-19.47,2.58-7.5,5.25-15.25,8.09-24.15,2.67-8.41,4.58-15.9,6.11-21.92,1.49-5.83,2.56-10,3.51-11.67,1.88-3.24,13.46-9.43,13.95-9.7a.36.36,0,0,1,.48.15.35.35,0,0,1-.15.47c-.12.07-11.89,6.37-13.68,9.43-.9,1.54-2,5.72-3.43,11.49-1.53,6-3.44,13.53-6.13,22-2.83,8.91-5.5,16.67-8.08,24.17-2.28,6.61-4.43,12.86-6.55,19.46a105.56,105.56,0,0,0-5.55,24.93c-1.6,10.35-5.19,37.77-5.22,38A.35.35,0,0,1,528.65,606.71Z" fill="#0d0d0d"/><path d="M573.22,349.94s-18.08,4.52-23.51,5.59-8.23,1.08-9,3.45a207.75,207.75,0,0,1-20.22,30.86c-6.12,6.66-6.64,13.06-4.78,16.48s4,5.07,12,2.93a26.77,26.77,0,0,0,13.06-8.78s1.89,20-.78,27.93-3.74,14.37-1.88,15.67A55.79,55.79,0,0,0,564.36,451c14.63.52,31.35-.81,34-3.48a7.09,7.09,0,0,0,2.61-6.11c0-1.86-1.05-14.34,2.14-24.19s12.23-35.12,12.49-44.7-3.45-10.9-10.63-13.82-18.63-8-21.27-8.52A79.2,79.2,0,0,0,573.22,349.94Z" fill="#d8b131"/><path d="M569.48,345.16a42.06,42.06,0,0,0-6.11,4.78c-.29.81-9.59,15.68-8.52,15.68s12.78-5.85,12.78-5.85,5.83-8.78,5.22-12.26a2.61,2.61,0,0,0-3.37-2.35Z" fill="#d8b131"/><path d="M569.48,345.16a42.06,42.06,0,0,0-6.11,4.78c-.29.81-9.59,15.68-8.52,15.68s12.78-5.85,12.78-5.85,5.83-8.78,5.22-12.26a2.61,2.61,0,0,0-3.37-2.35Z" opacity="0.2"/><path d="M567.24,342.21a71.89,71.89,0,0,1-1.33,17.56c-1.86,7.18-3.19,12-.53,12.77s11.45-12.25,13.82-16a25.43,25.43,0,0,0,3.19-6.92l1.88-20.75S573.61,340.41,567.24,342.21Z" fill="#f9b499"/><path d="M573.22,349.94s-.52,23.67,1.07,20.9,14.89-20.19,14.89-20.19L586,341.32Z" fill="#d8b131"/><path d="M573.22,349.94s-.52,23.67,1.07,20.9,14.89-20.19,14.89-20.19L586,341.32Z" opacity="0.2"/><path d="M596.63,376l-9,28.19,16.48,20.9s.81,1.59,2.15-.27,2.37-1.85,4.52-12,5.22-34.59,5-40.44-1.33-8.78-5.85-9.56" fill="#d8b131"/><path d="M546.1,408.73s41.23,15.67,46.82,16,6.9-3.45,4.52-10.45-9.59-10.92-15.68-12.78a44.57,44.57,0,0,0-21.26.26C554.33,403.4,546.1,406.61,546.1,408.73Z" fill="#f9b499"/><path d="M580.41,401.28s9.84,21.27,10.45,23.15,10.65,3.18,13.84,2.92,1.86-5.07-1.33-12-8.26-13.07-12-14.11A34.92,34.92,0,0,0,580.41,401.28Z" fill="#d8b131"/><path d="M580.41,401.28s9.84,21.27,10.45,23.15,10.65,3.18,13.84,2.92,1.86-5.07-1.33-12-8.26-13.07-12-14.11A34.92,34.92,0,0,0,580.41,401.28Z" opacity="0.2"/><path d="M525.36,393.83A41.1,41.1,0,0,0,515.25,396c-3.74,1.59-4.52,12.78-2.61,16.77s7.7,4,11.7,3.71a7.82,7.82,0,0,0,5.85-2.92l2.93-19.68Z" fill="#d8b131"/><path d="M533.07,393.83s30,0,37.49-.26,9.32,1.6,10.92,4.26,2.11,3.71,2.11,3.71A116.81,116.81,0,0,0,556,407.65c-12.25,4.81-22.88,9-26.62,9s-5.22-9.56-3.71-16.22A8,8,0,0,1,533.07,393.83Z" fill="#f9b499"/><path d="M524.55,392s12.77-.29,12.51,2.12-2.61,20.48-3.47,22.07-8.49,2.4-12.23,2.14-2.4-12.25,0-17.84A69.38,69.38,0,0,0,524.55,392Z" fill="#d8b131"/><path d="M524.55,392s12.77-.29,12.51,2.12-2.61,20.48-3.47,22.07-8.49,2.4-12.23,2.14-2.4-12.25,0-17.84A69.38,69.38,0,0,0,524.55,392Z" opacity="0.2"/><path d="M567.24,342.21l.07,4.45a50.73,50.73,0,0,0,15.76-4.45c.27-2.17.39-5.18.66-7.34Z" fill="#f4a790"/><path d="M578,341.75c6.7-4.8,8.69-14,10.55-22q1.49-6.4,2.43-12.9c.81-9-1.59-13.3-9.85-16s-19.2-2.71-23.43,1.86c0,0-2.62,22.62-2.62,31.14a33.42,33.42,0,0,0,2.6,11.79c3.15,7.8,12.61,11.12,19.67,6.54C577.55,342.06,577.77,341.91,578,341.75Z" fill="#f9b499"/><path d="M553.42,289a3.53,3.53,0,0,0,0,.65,8.57,8.57,0,0,0,5.77,5.72c5.85,2.41,19.67-.52,24.45,1.08s2.62,6.11-.26,7.7-3.45,2.41-2.11,4.26,4.52,3.74,3.45,5.85-1.6,4.26.26,4.52,3.18.26,4-.78,6.12-12.52,6.12-19.15-3.19-9.59-10.64-12.52-22.88-4.78-27.4-2.11A6.38,6.38,0,0,0,553.42,289Z" fill="#0d0d0d"/><path d="M584.27,328.31a4.26,4.26,0,0,0,5.23.6c2.92-1.85,4.26-8.51,2.4-12s-5.59,3.18-5.59,3.18" fill="#f9b499"/><path d="M212.47,519.21l5.2-12.53h61.21s-.72,8.14-8.19,11.45a14,14,0,0,1-5.7,1.08Z" opacity="0.2"/><polygon points="95.07 506.68 92.07 513.66 117.94 513.66 120.77 506.68 95.07 506.68" opacity="0.2"/></svg>